<?xml version="1.0" encoding="UTF-8"?>
<svg id="Layer_2" data-name="Layer 2" xmlns="http://www.w3.org/2000/svg" viewBox="0 0 373.37 315.04">
  <defs>
    <style>
      .cls-1 {
        fill: #fdd03f;
      }

      .cls-2 {
        fill: #574ae2;
      }
    </style>
  </defs>
  <g id="Layer_1-2" data-name="Layer 1">
    <g>
      <path class="cls-1" d="m285.52,97.92v61.45c0,54.36-44.23,98.59-98.59,98.59s-98.58-44.23-98.58-98.59v-61.45H31.24v61.45c0,85.83,69.83,155.66,155.66,155.66s155.69-69.83,155.69-155.66v-61.45h-57.08Z"/>
      <g>
        <path class="cls-2" d="m31.83,57.57L0,42.81C1.75,39.03,18.2,5.71,56.11.62c29.63-3.98,59.42,11.67,74.1,38.96l-30.9,16.62c-7.8-14.49-23.29-22.86-38.53-20.81-19.52,2.62-28.57,21.38-28.95,22.18Z"/>
        <path class="cls-2" d="m274.99,57.57l-31.83-14.77c1.75-3.78,18.22-37.1,56.1-42.19,29.64-3.98,59.42,11.67,74.1,38.96l-30.9,16.62c-7.8-14.49-23.28-22.86-38.53-20.81-19.52,2.62-28.58,21.39-28.95,22.19Z"/>
      </g>
    </g>
  </g>
</svg>
