<?xml version="1.0" encoding="UTF-8"?>
<svg id="Layer_2" data-name="Layer 2" xmlns="http://www.w3.org/2000/svg" viewBox="0 0 1152.69 196.64">
  <defs>
    <style>
      .cls-1 {
        fill: #ffd23f;
      }

      .cls-2 {
        fill: #574ae2;
      }
    </style>
  </defs>
  <g id="Layer_1-2" data-name="Layer 1">
    <g>
      <g>
        <path class="cls-1" d="m42.2,134.66v21.12c-23.26,0-42.2-18.93-42.2-42.19V1.96h21.12v111.63c0,11.62,9.46,21.07,21.07,21.07Z"/>
        <path class="cls-1" d="m167.73,98.29c0,31.76-25.83,57.59-57.59,57.59s-57.59-25.83-57.59-57.59,25.83-57.59,57.59-57.59,57.59,25.83,57.59,57.59Zm-21.12,0c0-20.11-16.36-36.47-36.47-36.47s-36.47,16.36-36.47,36.47,16.36,36.47,36.47,36.47,36.47-16.36,36.47-36.47Z"/>
        <path class="cls-1" d="m238.05,40.69c31.76,0,57.6,25.83,57.6,57.59v55.46h-21.12v-12.94h-1.22s-12.76,14.93-35.03,15.06c-.08,0-.16.01-.23.01-31.76,0-57.59-25.83-57.59-57.59s25.83-57.59,57.59-57.59h0Zm36.47,57.6c0-20.11-16.36-36.47-36.47-36.47s-36.47,16.36-36.47,36.47,16.36,36.47,36.47,36.47,36.47-16.36,36.47-36.47Z"/>
        <path class="cls-1" d="m370.33,41.79c31.76,0,57.6,25.83,57.6,57.59v55.46h-21.12v-55.46c0-20.11-16.36-36.47-36.47-36.47s-36.47,16.36-36.47,36.47v55.46h-21.12v-55.46c0-31.76,25.83-57.59,57.59-57.59h0Z"/>
        <path class="cls-1" d="m566.6,40.7c31.74.03,57.55,25.83,57.55,57.59s-25.84,57.59-57.6,57.59-57.59-25.83-57.59-57.59V0h21.12v55.78h1.22s12.87-15.08,35.32-15.08h0Zm36.43,57.59c0-20.11-16.36-36.47-36.47-36.47s-36.47,16.36-36.47,36.47,16.36,36.47,36.47,36.47,36.47-16.36,36.47-36.47Z"/>
        <path class="cls-1" d="m883.25,0v98.29c0,31.76-25.83,57.59-57.59,57.59s-57.59-25.85-57.59-57.59,25.8-57.56,57.54-57.59c22.45,0,35.32,15.08,35.32,15.08h1.21V0h21.12Zm-21.11,98.29c0-20.11-16.36-36.47-36.47-36.47s-36.47,16.36-36.47,36.47,16.36,36.47,36.47,36.47,36.47-16.36,36.47-36.47Z"/>
        <path class="cls-1" d="m1016.79,0v98.29c0,31.76-25.83,57.59-57.59,57.59s-57.59-25.85-57.59-57.59,25.8-57.56,57.54-57.59c22.45,0,35.32,15.08,35.32,15.08h1.21V0h21.12Zm-21.11,98.29c0-20.11-16.36-36.47-36.47-36.47s-36.47,16.36-36.47,36.47,16.36,36.47,36.47,36.47,36.47-16.36,36.47-36.47Z"/>
        <path class="cls-1" d="m1152.69,42.82v55.46c0,28.14-20.31,51.6-47.03,56.58v41.78h-21.12v-41.78c-26.73-4.98-47.03-28.43-47.03-56.58v-55.46h21.12v55.46c0,20.11,16.36,36.47,36.47,36.47s36.47-16.36,36.47-36.47v-55.46h21.12Z"/>
      </g>
      <path class="cls-1" d="m734.16,72.96v23.72c0,20.98-17.07,38.05-38.05,38.05s-38.05-17.07-38.05-38.05v-23.72h-22.04v23.72c0,33.13,26.95,60.08,60.08,60.08s60.09-26.95,60.09-60.08v-23.72h-22.03Z"/>
      <g>
        <path class="cls-2" d="m635.16,56.87l-10.1-4.68c.65-1.4,6.73-13.72,20.72-15.6,10.95-1.47,21.95,4.32,27.38,14.41l-9.8,5.27c-3.25-6.04-9.71-9.52-16.1-8.66-8.22,1.1-11.95,8.91-12.11,9.25Z"/>
        <path class="cls-2" d="m729.01,56.87l-10.1-4.68c.65-1.4,6.73-13.72,20.72-15.6,10.95-1.47,21.95,4.32,27.38,14.41l-9.8,5.27c-3.25-6.03-9.71-9.51-16.1-8.66-8.22,1.1-11.95,8.91-12.11,9.25Z"/>
      </g>
    </g>
  </g>
</svg>